# xmcd CD database file
#
# Track frame offsets:
#	150
#	13722
#	29240
#	46332
#	60532
#	79890
#	98157
#	116060
#	131632
#	157400
#	181462
#
# Disc length: 2606 seconds
#
# Revision: 9
# Processed by: cddbd v1.5.2PL0 Copyright (c) Steve Scherf et al.
# Submitted via: CDex 1.83
#
DISCID=9c0a2c0b
DTITLE=Various Artist - High Lonesome Sound
DYEAR=1996
DGENRE=Country
TTITLE0=Vince Gill - One Dance With You
TTITLE1=Vince Gill - High Lonesome Sound
TTITLE2=Vince Gill - Pretty Little Adriana
TTITLE3=Vince Gill - A Little More Love
TTITLE4=Vince Gill - Down To New Orleans
TTITLE5=Vince Gill - Tell Me Lover
TTITLE6=Vince Gill - Given More Time
TTITLE7=Vince Gill - You And You Alone
TTITLE8=Vince Gill - Worlds Apart
TTITLE9=Vince Gill - Jenny Dreamed Of Trains
TTITLE10=Vince Gill featuring Alison Krauss and Union Station - High Lonesome Sound
EXTD=YEAR: 1996
EXTT0=
EXTT1=
EXTT2=
EXTT3=
EXTT4=
EXTT5=
EXTT6=
EXTT7=
EXTT8=
EXTT9=
EXTT10=
PLAYORDER=
